<?xml version="1.0" standalone="no"?>
<!DOCTYPE svg PUBLIC "-//W3C//DTD SVG 20010904//EN"
 "http://www.w3.org/TR/2001/REC-SVG-20010904/DTD/svg10.dtd">
<svg version="1.0" xmlns="http://www.w3.org/2000/svg"
 width="512.000000pt" height="512.000000pt" viewBox="0 0 512.000000 512.000000"
 preserveAspectRatio="xMidYMid meet">

<g transform="translate(0.000000,512.000000) scale(0.100000,-0.100000)"
fill="#000000" stroke="none">
<path d="M2565 5095 l-25 -24 0 -434 0 -434 25 -23 c32 -30 78 -30 110 0 l25
23 0 434 0 434 -25 24 c-15 16 -36 25 -55 25 -19 0 -40 -9 -55 -25z"/>
<path d="M1935 4675 l-25 -24 0 -224 0 -224 25 -23 c15 -14 37 -23 55 -23 18
0 40 9 55 23 l25 23 0 224 0 224 -25 24 c-15 16 -36 25 -55 25 -19 0 -40 -9
-55 -25z"/>
<path d="M3195 4675 l-25 -24 0 -223 c1 -240 2 -248 53 -267 31 -12 53 -6 85
22 22 20 22 25 22 244 l0 224 -25 24 c-15 16 -36 25 -55 25 -19 0 -40 -9 -55
-25z"/>
<path d="M2420 3985 c-382 -65 -718 -314 -889 -660 -88 -177 -125 -336 -125
-540 0 -324 111 -605 331 -836 412 -434 1063 -504 1568 -171 39 25 116 91 171
147 184 182 296 394 345 655 16 84 16 327 0 409 -88 455 -392 808 -819 951
-170 57 -405 75 -582 45z m376 -166 c225 -40 419 -144 580 -311 127 -132 213
-285 261 -466 23 -85 26 -117 26 -257 0 -142 -3 -172 -26 -260 -135 -504 -595
-828 -1115 -784 -552 47 -978 538 -949 1093 25 482 365 878 842 979 83 18 296
21 381 6z"/>
<path d="M2575 3568 c-35 -19 -45 -40 -45 -99 l0 -56 -44 -17 c-129 -49 -226
-192 -226 -332 0 -107 70 -236 158 -292 66 -43 96 -53 185 -63 89 -11 124 -25
160 -68 105 -125 20 -311 -143 -311 -100 0 -173 65 -189 171 -15 93 -84 127
-142 70 -34 -34 -36 -60 -14 -146 28 -107 122 -211 223 -246 31 -11 32 -13 32
-66 0 -66 10 -86 50 -103 24 -10 36 -10 60 0 40 16 50 37 50 100 0 39 4 52 18
56 195 65 305 249 258 434 -40 154 -151 250 -313 270 -98 13 -110 17 -152 47
-123 93 -77 292 77 332 109 30 231 -63 232 -177 0 -42 46 -92 85 -92 36 0 85
50 85 87 0 55 -31 148 -66 200 -43 63 -89 99 -163 129 l-56 23 -3 48 c-3 59
-17 87 -49 102 -30 14 -42 13 -68 -1z"/>
<path d="M382 1672 c-12 -12 -24 -32 -26 -44 -11 -50 -44 -1491 -35 -1515 17
-46 49 -50 424 -58 l350 -7 23 25 c16 17 26 43 30 78 l7 52 115 60 c171 88
133 92 780 -90 295 -83 574 -157 620 -164 91 -13 259 -8 350 11 166 34 230 65
508 244 1023 660 1240 801 1265 824 37 35 36 76 -4 136 -40 59 -99 108 -175
143 -77 35 -215 44 -292 19 -28 -10 -203 -89 -389 -177 -300 -142 -339 -158
-348 -143 -75 127 -213 224 -364 254 -25 5 -206 14 -402 20 -411 12 -444 17
-608 100 -207 103 -354 136 -574 127 -146 -5 -234 -25 -374 -81 l-86 -34 6 70
c8 91 -8 132 -55 146 -18 6 -187 14 -379 18 -343 6 -347 6 -367 -14z m633
-165 c1 -1 -7 -272 -16 -602 -10 -330 -18 -620 -18 -644 l-1 -44 -247 7 c-136
4 -248 8 -249 9 -2 2 33 1270 35 1286 1 4 494 -7 496 -12z m903 -133 c56 -14
149 -50 230 -88 192 -91 214 -96 502 -107 541 -21 559 -22 622 -51 76 -35 141
-98 178 -171 48 -96 56 -91 -147 -84 -98 4 -308 10 -468 13 -282 7 -291 6
-315 -14 -34 -27 -35 -96 -2 -122 29 -24 76 -27 627 -41 l459 -11 29 32 c27
30 29 38 25 97 l-3 64 347 164 c191 91 367 169 391 175 24 5 61 7 83 3 47 -7
137 -50 132 -63 -3 -11 -1362 -891 -1420 -921 -20 -10 -76 -31 -125 -46 -80
-24 -103 -27 -253 -27 l-165 0 -535 153 c-670 192 -693 195 -876 104 -41 -20
-75 -35 -77 -32 -5 5 19 848 24 853 18 17 149 81 206 100 172 59 350 65 531
20z"/>
</g>
</svg>
